<mxfile host="Electron" modified="2023-11-15T15:09:26.956Z" agent="Mozilla/5.0 (Windows NT 10.0; Win64; x64) AppleWebKit/537.36 (KHTML, like Gecko) draw.io/21.6.5 Chrome/114.0.5735.243 Electron/25.3.1 Safari/537.36" etag="yBEuKhVR6MVV3rI1-leS" version="21.6.5" type="device">
  <diagram name="Page-1" id="mu8xHbFrGQiwSLkSpyd4">
    <mxGraphModel dx="3134" dy="844" grid="1" gridSize="10" guides="1" tooltips="1" connect="1" arrows="1" fold="1" page="1" pageScale="1" pageWidth="850" pageHeight="1100" math="0" shadow="0">
      <root>
        <mxCell id="0" />
        <mxCell id="1" parent="0" />
        <mxCell id="N04cmMl2v4YaRa6Aq1DG-1" value="IState" style="swimlane;fontStyle=1;align=center;verticalAlign=top;childLayout=stackLayout;horizontal=1;startSize=26;horizontalStack=0;resizeParent=1;resizeParentMax=0;resizeLast=0;collapsible=1;marginBottom=0;whiteSpace=wrap;html=1;" parent="1" vertex="1">
          <mxGeometry x="-540" y="440" width="160" height="150" as="geometry" />
        </mxCell>
        <mxCell id="N04cmMl2v4YaRa6Aq1DG-2" value="# water" style="text;strokeColor=none;fillColor=none;align=left;verticalAlign=top;spacingLeft=4;spacingRight=4;overflow=hidden;rotatable=0;points=[[0,0.5],[1,0.5]];portConstraint=eastwest;whiteSpace=wrap;html=1;" parent="N04cmMl2v4YaRa6Aq1DG-1" vertex="1">
          <mxGeometry y="26" width="160" height="26" as="geometry" />
        </mxCell>
        <mxCell id="N04cmMl2v4YaRa6Aq1DG-3" value="" style="line;strokeWidth=1;fillColor=none;align=left;verticalAlign=middle;spacingTop=-1;spacingLeft=3;spacingRight=3;rotatable=0;labelPosition=right;points=[];portConstraint=eastwest;strokeColor=inherit;" parent="N04cmMl2v4YaRa6Aq1DG-1" vertex="1">
          <mxGeometry y="52" width="160" height="8" as="geometry" />
        </mxCell>
        <mxCell id="N04cmMl2v4YaRa6Aq1DG-15" value="+ Rain()" style="text;strokeColor=none;fillColor=none;align=left;verticalAlign=middle;spacingLeft=4;spacingRight=4;overflow=hidden;points=[[0,0.5],[1,0.5]];portConstraint=eastwest;rotatable=0;whiteSpace=wrap;html=1;" parent="N04cmMl2v4YaRa6Aq1DG-1" vertex="1">
          <mxGeometry y="60" width="160" height="30" as="geometry" />
        </mxCell>
        <mxCell id="N04cmMl2v4YaRa6Aq1DG-17" value="+ EnterChlorine&lt;span style=&quot;background-color: initial;&quot;&gt;()&lt;/span&gt;" style="text;strokeColor=none;fillColor=none;align=left;verticalAlign=middle;spacingLeft=4;spacingRight=4;overflow=hidden;points=[[0,0.5],[1,0.5]];portConstraint=eastwest;rotatable=0;whiteSpace=wrap;html=1;" parent="N04cmMl2v4YaRa6Aq1DG-1" vertex="1">
          <mxGeometry y="90" width="160" height="30" as="geometry" />
        </mxCell>
        <mxCell id="-i6wfO7lA18nL6NSsSmH-3" value="+&amp;nbsp;Sewage&lt;span style=&quot;background-color: initial;&quot;&gt;()&lt;/span&gt;" style="text;strokeColor=none;fillColor=none;align=left;verticalAlign=middle;spacingLeft=4;spacingRight=4;overflow=hidden;points=[[0,0.5],[1,0.5]];portConstraint=eastwest;rotatable=0;whiteSpace=wrap;html=1;" parent="N04cmMl2v4YaRa6Aq1DG-1" vertex="1">
          <mxGeometry y="120" width="160" height="30" as="geometry" />
        </mxCell>
        <mxCell id="N04cmMl2v4YaRa6Aq1DG-5" value="&lt;b&gt;Water&lt;/b&gt;" style="swimlane;fontStyle=0;childLayout=stackLayout;horizontal=1;startSize=30;horizontalStack=0;resizeParent=1;resizeParentMax=0;resizeLast=0;collapsible=1;marginBottom=0;whiteSpace=wrap;html=1;" parent="1" vertex="1">
          <mxGeometry x="-870" y="420" width="140" height="210" as="geometry" />
        </mxCell>
        <mxCell id="N04cmMl2v4YaRa6Aq1DG-9" value="- state" style="rounded=0;whiteSpace=wrap;html=1;align=left;" parent="N04cmMl2v4YaRa6Aq1DG-5" vertex="1">
          <mxGeometry y="30" width="140" height="30" as="geometry" />
        </mxCell>
        <mxCell id="N04cmMl2v4YaRa6Aq1DG-6" value="+&amp;nbsp;&lt;span style=&quot;border-color: var(--border-color); text-align: center;&quot;&gt;water&lt;/span&gt;(s : State)" style="text;strokeColor=none;fillColor=none;align=left;verticalAlign=middle;spacingLeft=4;spacingRight=4;overflow=hidden;points=[[0,0.5],[1,0.5]];portConstraint=eastwest;rotatable=0;whiteSpace=wrap;html=1;" parent="N04cmMl2v4YaRa6Aq1DG-5" vertex="1">
          <mxGeometry y="60" width="140" height="30" as="geometry" />
        </mxCell>
        <mxCell id="N04cmMl2v4YaRa6Aq1DG-7" value="+ changeState(s : state)" style="text;strokeColor=none;fillColor=none;align=left;verticalAlign=middle;spacingLeft=4;spacingRight=4;overflow=hidden;points=[[0,0.5],[1,0.5]];portConstraint=eastwest;rotatable=0;whiteSpace=wrap;html=1;" parent="N04cmMl2v4YaRa6Aq1DG-5" vertex="1">
          <mxGeometry y="90" width="140" height="30" as="geometry" />
        </mxCell>
        <mxCell id="oasYiwlmSFTCgjJgMNQq-10" value="+ Rain()" style="text;strokeColor=none;fillColor=none;align=left;verticalAlign=middle;spacingLeft=4;spacingRight=4;overflow=hidden;points=[[0,0.5],[1,0.5]];portConstraint=eastwest;rotatable=0;whiteSpace=wrap;html=1;" vertex="1" parent="N04cmMl2v4YaRa6Aq1DG-5">
          <mxGeometry y="120" width="140" height="30" as="geometry" />
        </mxCell>
        <mxCell id="oasYiwlmSFTCgjJgMNQq-12" value="+&amp;nbsp;Sewage&lt;span style=&quot;background-color: initial;&quot;&gt;()&lt;/span&gt;" style="text;strokeColor=none;fillColor=none;align=left;verticalAlign=middle;spacingLeft=4;spacingRight=4;overflow=hidden;points=[[0,0.5],[1,0.5]];portConstraint=eastwest;rotatable=0;whiteSpace=wrap;html=1;" vertex="1" parent="N04cmMl2v4YaRa6Aq1DG-5">
          <mxGeometry y="150" width="140" height="30" as="geometry" />
        </mxCell>
        <mxCell id="oasYiwlmSFTCgjJgMNQq-11" value="+ EnterChlorine&lt;span style=&quot;background-color: initial;&quot;&gt;()&lt;/span&gt;" style="text;strokeColor=none;fillColor=none;align=left;verticalAlign=middle;spacingLeft=4;spacingRight=4;overflow=hidden;points=[[0,0.5],[1,0.5]];portConstraint=eastwest;rotatable=0;whiteSpace=wrap;html=1;" vertex="1" parent="N04cmMl2v4YaRa6Aq1DG-5">
          <mxGeometry y="180" width="140" height="30" as="geometry" />
        </mxCell>
        <mxCell id="N04cmMl2v4YaRa6Aq1DG-18" value="&lt;b&gt;SewageWater&lt;/b&gt;" style="swimlane;fontStyle=0;childLayout=stackLayout;horizontal=1;startSize=26;fillColor=none;horizontalStack=0;resizeParent=1;resizeParentMax=0;resizeLast=0;collapsible=1;marginBottom=0;whiteSpace=wrap;html=1;" parent="1" vertex="1">
          <mxGeometry x="-790" y="750" width="160" height="140" as="geometry" />
        </mxCell>
        <mxCell id="N04cmMl2v4YaRa6Aq1DG-36" value="" style="rounded=0;whiteSpace=wrap;html=1;" parent="N04cmMl2v4YaRa6Aq1DG-18" vertex="1">
          <mxGeometry y="26" width="160" height="24" as="geometry" />
        </mxCell>
        <mxCell id="oasYiwlmSFTCgjJgMNQq-13" value="+ Rain()" style="text;strokeColor=none;fillColor=none;align=left;verticalAlign=middle;spacingLeft=4;spacingRight=4;overflow=hidden;points=[[0,0.5],[1,0.5]];portConstraint=eastwest;rotatable=0;whiteSpace=wrap;html=1;" vertex="1" parent="N04cmMl2v4YaRa6Aq1DG-18">
          <mxGeometry y="50" width="160" height="30" as="geometry" />
        </mxCell>
        <mxCell id="oasYiwlmSFTCgjJgMNQq-15" value="+&amp;nbsp;Sewage&lt;span style=&quot;background-color: initial;&quot;&gt;()&lt;/span&gt;" style="text;strokeColor=none;fillColor=none;align=left;verticalAlign=middle;spacingLeft=4;spacingRight=4;overflow=hidden;points=[[0,0.5],[1,0.5]];portConstraint=eastwest;rotatable=0;whiteSpace=wrap;html=1;" vertex="1" parent="N04cmMl2v4YaRa6Aq1DG-18">
          <mxGeometry y="80" width="160" height="30" as="geometry" />
        </mxCell>
        <mxCell id="oasYiwlmSFTCgjJgMNQq-14" value="+ EnterChlorine&lt;span style=&quot;background-color: initial;&quot;&gt;()&lt;/span&gt;" style="text;strokeColor=none;fillColor=none;align=left;verticalAlign=middle;spacingLeft=4;spacingRight=4;overflow=hidden;points=[[0,0.5],[1,0.5]];portConstraint=eastwest;rotatable=0;whiteSpace=wrap;html=1;" vertex="1" parent="N04cmMl2v4YaRa6Aq1DG-18">
          <mxGeometry y="110" width="160" height="30" as="geometry" />
        </mxCell>
        <mxCell id="N04cmMl2v4YaRa6Aq1DG-22" value="&lt;b&gt;DrinkingWater&lt;/b&gt;" style="swimlane;fontStyle=0;childLayout=stackLayout;horizontal=1;startSize=26;fillColor=none;horizontalStack=0;resizeParent=1;resizeParentMax=0;resizeLast=0;collapsible=1;marginBottom=0;whiteSpace=wrap;html=1;" parent="1" vertex="1">
          <mxGeometry x="-545" y="750" width="170" height="140" as="geometry" />
        </mxCell>
        <mxCell id="oasYiwlmSFTCgjJgMNQq-25" value="" style="endArrow=none;html=1;rounded=0;" edge="1" parent="N04cmMl2v4YaRa6Aq1DG-22" source="N04cmMl2v4YaRa6Aq1DG-22">
          <mxGeometry width="50" height="50" relative="1" as="geometry">
            <mxPoint x="85" y="60" as="sourcePoint" />
            <mxPoint x="85" y="-140" as="targetPoint" />
          </mxGeometry>
        </mxCell>
        <mxCell id="N04cmMl2v4YaRa6Aq1DG-37" value="" style="rounded=0;whiteSpace=wrap;html=1;" parent="N04cmMl2v4YaRa6Aq1DG-22" vertex="1">
          <mxGeometry y="26" width="170" height="24" as="geometry" />
        </mxCell>
        <mxCell id="oasYiwlmSFTCgjJgMNQq-16" value="+ Rain()" style="text;strokeColor=none;fillColor=none;align=left;verticalAlign=middle;spacingLeft=4;spacingRight=4;overflow=hidden;points=[[0,0.5],[1,0.5]];portConstraint=eastwest;rotatable=0;whiteSpace=wrap;html=1;" vertex="1" parent="N04cmMl2v4YaRa6Aq1DG-22">
          <mxGeometry y="50" width="170" height="30" as="geometry" />
        </mxCell>
        <mxCell id="oasYiwlmSFTCgjJgMNQq-17" value="+ EnterChlorine&lt;span style=&quot;background-color: initial;&quot;&gt;()&lt;/span&gt;" style="text;strokeColor=none;fillColor=none;align=left;verticalAlign=middle;spacingLeft=4;spacingRight=4;overflow=hidden;points=[[0,0.5],[1,0.5]];portConstraint=eastwest;rotatable=0;whiteSpace=wrap;html=1;" vertex="1" parent="N04cmMl2v4YaRa6Aq1DG-22">
          <mxGeometry y="80" width="170" height="30" as="geometry" />
        </mxCell>
        <mxCell id="oasYiwlmSFTCgjJgMNQq-18" value="+&amp;nbsp;Sewage&lt;span style=&quot;background-color: initial;&quot;&gt;()&lt;/span&gt;" style="text;strokeColor=none;fillColor=none;align=left;verticalAlign=middle;spacingLeft=4;spacingRight=4;overflow=hidden;points=[[0,0.5],[1,0.5]];portConstraint=eastwest;rotatable=0;whiteSpace=wrap;html=1;" vertex="1" parent="N04cmMl2v4YaRa6Aq1DG-22">
          <mxGeometry y="110" width="170" height="30" as="geometry" />
        </mxCell>
        <mxCell id="N04cmMl2v4YaRa6Aq1DG-26" value="&lt;font size=&quot;1&quot; style=&quot;&quot;&gt;&lt;b style=&quot;font-size: 12px;&quot;&gt;Watersupply&lt;/b&gt;&lt;/font&gt;" style="swimlane;fontStyle=0;childLayout=stackLayout;horizontal=1;startSize=26;fillColor=none;horizontalStack=0;resizeParent=1;resizeParentMax=0;resizeLast=0;collapsible=1;marginBottom=0;whiteSpace=wrap;html=1;" parent="1" vertex="1">
          <mxGeometry x="-280" y="750" width="160" height="140" as="geometry" />
        </mxCell>
        <mxCell id="N04cmMl2v4YaRa6Aq1DG-38" value="" style="rounded=0;whiteSpace=wrap;html=1;" parent="N04cmMl2v4YaRa6Aq1DG-26" vertex="1">
          <mxGeometry y="26" width="160" height="24" as="geometry" />
        </mxCell>
        <mxCell id="oasYiwlmSFTCgjJgMNQq-19" value="+ Rain()" style="text;strokeColor=none;fillColor=none;align=left;verticalAlign=middle;spacingLeft=4;spacingRight=4;overflow=hidden;points=[[0,0.5],[1,0.5]];portConstraint=eastwest;rotatable=0;whiteSpace=wrap;html=1;" vertex="1" parent="N04cmMl2v4YaRa6Aq1DG-26">
          <mxGeometry y="50" width="160" height="30" as="geometry" />
        </mxCell>
        <mxCell id="oasYiwlmSFTCgjJgMNQq-21" value="+&amp;nbsp;Sewage&lt;span style=&quot;background-color: initial;&quot;&gt;()&lt;/span&gt;" style="text;strokeColor=none;fillColor=none;align=left;verticalAlign=middle;spacingLeft=4;spacingRight=4;overflow=hidden;points=[[0,0.5],[1,0.5]];portConstraint=eastwest;rotatable=0;whiteSpace=wrap;html=1;" vertex="1" parent="N04cmMl2v4YaRa6Aq1DG-26">
          <mxGeometry y="80" width="160" height="30" as="geometry" />
        </mxCell>
        <mxCell id="oasYiwlmSFTCgjJgMNQq-20" value="+ EnterChlorine&lt;span style=&quot;background-color: initial;&quot;&gt;()&lt;/span&gt;" style="text;strokeColor=none;fillColor=none;align=left;verticalAlign=middle;spacingLeft=4;spacingRight=4;overflow=hidden;points=[[0,0.5],[1,0.5]];portConstraint=eastwest;rotatable=0;whiteSpace=wrap;html=1;" vertex="1" parent="N04cmMl2v4YaRa6Aq1DG-26">
          <mxGeometry y="110" width="160" height="30" as="geometry" />
        </mxCell>
        <mxCell id="N04cmMl2v4YaRa6Aq1DG-60" value="" style="endArrow=open;endFill=1;endSize=12;html=1;rounded=0;" parent="1" target="N04cmMl2v4YaRa6Aq1DG-1" edge="1">
          <mxGeometry width="160" relative="1" as="geometry">
            <mxPoint x="-460" y="720" as="sourcePoint" />
            <mxPoint x="-390" y="700" as="targetPoint" />
          </mxGeometry>
        </mxCell>
        <mxCell id="N04cmMl2v4YaRa6Aq1DG-61" value="" style="endArrow=none;html=1;rounded=0;" parent="1" source="N04cmMl2v4YaRa6Aq1DG-18" edge="1">
          <mxGeometry width="50" height="50" relative="1" as="geometry">
            <mxPoint x="-640" y="750" as="sourcePoint" />
            <mxPoint x="-710" y="720" as="targetPoint" />
          </mxGeometry>
        </mxCell>
        <mxCell id="N04cmMl2v4YaRa6Aq1DG-63" value="" style="endArrow=none;html=1;rounded=0;" parent="1" edge="1">
          <mxGeometry width="50" height="50" relative="1" as="geometry">
            <mxPoint x="-188.695652173913" y="750" as="sourcePoint" />
            <mxPoint x="-190" y="720" as="targetPoint" />
          </mxGeometry>
        </mxCell>
        <mxCell id="N04cmMl2v4YaRa6Aq1DG-64" value="" style="endArrow=none;html=1;rounded=0;" parent="1" edge="1">
          <mxGeometry width="50" height="50" relative="1" as="geometry">
            <mxPoint x="-710" y="720" as="sourcePoint" />
            <mxPoint x="-190" y="720" as="targetPoint" />
          </mxGeometry>
        </mxCell>
        <mxCell id="oasYiwlmSFTCgjJgMNQq-24" value="" style="endArrow=open;html=1;endSize=12;startArrow=diamondThin;startSize=14;startFill=0;align=left;verticalAlign=bottom;rounded=0;entryX=-0.012;entryY=1.038;entryDx=0;entryDy=0;entryPerimeter=0;exitX=1;exitY=0.5;exitDx=0;exitDy=0;" edge="1" parent="1" source="N04cmMl2v4YaRa6Aq1DG-6" target="N04cmMl2v4YaRa6Aq1DG-2">
          <mxGeometry x="-1" y="3" relative="1" as="geometry">
            <mxPoint x="-730" y="490" as="sourcePoint" />
            <mxPoint x="-570" y="490" as="targetPoint" />
          </mxGeometry>
        </mxCell>
        <mxCell id="oasYiwlmSFTCgjJgMNQq-29" value="&lt;div style=&quot;border-color: var(--border-color); color: rgb(0, 0, 0);&quot;&gt;&amp;nbsp; &amp;nbsp; if (isLongtime == &quot;Long&quot;)&lt;/div&gt;&lt;div style=&quot;border-color: var(--border-color); color: rgb(0, 0, 0);&quot;&gt;&amp;nbsp; &amp;nbsp; &amp;nbsp; &amp;nbsp; {&lt;/div&gt;&lt;div style=&quot;border-color: var(--border-color); color: rgb(0, 0, 0);&quot;&gt;&amp;nbsp; &amp;nbsp; &amp;nbsp; &amp;nbsp; &amp;nbsp; base.water.ChangeState(new WaterSupply());&lt;/div&gt;&lt;div style=&quot;border-color: var(--border-color); color: rgb(0, 0, 0);&quot;&gt;&amp;nbsp; &amp;nbsp; &amp;nbsp; &amp;nbsp; &amp;nbsp;}&lt;/div&gt;&lt;div style=&quot;border-color: var(--border-color); color: rgb(0, 0, 0);&quot;&gt;&lt;br&gt;&lt;/div&gt;" style="shape=note;whiteSpace=wrap;html=1;backgroundOutline=1;darkOpacity=0.05;fillColor=#f5f5f5;fontColor=#333333;strokeColor=#666666;align=left;" vertex="1" parent="1">
          <mxGeometry x="-1140" y="770" width="300" height="80" as="geometry" />
        </mxCell>
        <mxCell id="oasYiwlmSFTCgjJgMNQq-30" value="&lt;div style=&quot;border-color: var(--border-color); color: rgb(0, 0, 0);&quot;&gt;&lt;div style=&quot;border-color: var(--border-color);&quot;&gt;&amp;nbsp; &amp;nbsp; if(isLongtime == &quot;Long&quot;)&lt;/div&gt;&lt;div style=&quot;border-color: var(--border-color);&quot;&gt;&amp;nbsp; &amp;nbsp; &amp;nbsp; &amp;nbsp; &amp;nbsp; &amp;nbsp; {&lt;/div&gt;&lt;div style=&quot;border-color: var(--border-color);&quot;&gt;&amp;nbsp; &amp;nbsp; &amp;nbsp; &amp;nbsp; &amp;nbsp; &amp;nbsp; &amp;nbsp; &amp;nbsp; base.water.ChangeState(new WaterSupply());&lt;/div&gt;&lt;div style=&quot;border-color: var(--border-color);&quot;&gt;&amp;nbsp; &amp;nbsp; &amp;nbsp; &amp;nbsp; &amp;nbsp; &amp;nbsp; }&lt;/div&gt;&lt;div style=&quot;border-color: var(--border-color);&quot;&gt;&amp;nbsp; &amp;nbsp; &amp;nbsp; &amp;nbsp; &amp;nbsp; &amp;nbsp; else&lt;/div&gt;&lt;div style=&quot;border-color: var(--border-color);&quot;&gt;&amp;nbsp; &amp;nbsp; &amp;nbsp; &amp;nbsp; &amp;nbsp; &amp;nbsp; {&lt;/div&gt;&lt;div style=&quot;border-color: var(--border-color);&quot;&gt;&amp;nbsp; &amp;nbsp; &amp;nbsp; &amp;nbsp; &amp;nbsp; &amp;nbsp; &amp;nbsp; &amp;nbsp; base.water.ChangeState(new SewageWater());&lt;/div&gt;&lt;div style=&quot;border-color: var(--border-color);&quot;&gt;&amp;nbsp; &amp;nbsp; &amp;nbsp; &amp;nbsp; &amp;nbsp; &amp;nbsp; }&lt;/div&gt;&lt;/div&gt;" style="shape=note;whiteSpace=wrap;html=1;backgroundOutline=1;darkOpacity=0.05;fillColor=#f5f5f5;fontColor=#333333;strokeColor=#666666;align=left;" vertex="1" parent="1">
          <mxGeometry x="-660" y="930" width="330" height="120" as="geometry" />
        </mxCell>
        <mxCell id="oasYiwlmSFTCgjJgMNQq-31" value="" style="endArrow=oval;dashed=1;html=1;dashPattern=1 3;strokeWidth=2;rounded=0;endFill=0;" edge="1" parent="1" source="oasYiwlmSFTCgjJgMNQq-29" target="oasYiwlmSFTCgjJgMNQq-13">
          <mxGeometry width="50" height="50" relative="1" as="geometry">
            <mxPoint x="-800" y="860" as="sourcePoint" />
            <mxPoint x="-750" y="810" as="targetPoint" />
          </mxGeometry>
        </mxCell>
        <mxCell id="oasYiwlmSFTCgjJgMNQq-32" value="" style="endArrow=none;dashed=1;html=1;dashPattern=1 3;strokeWidth=2;rounded=0;entryX=0;entryY=0.5;entryDx=0;entryDy=0;edgeStyle=orthogonalEdgeStyle;" edge="1" parent="1" target="oasYiwlmSFTCgjJgMNQq-16">
          <mxGeometry width="50" height="50" relative="1" as="geometry">
            <mxPoint x="-556" y="932" as="sourcePoint" />
            <mxPoint x="-500" y="810" as="targetPoint" />
            <Array as="points">
              <mxPoint x="-560" y="932" />
              <mxPoint x="-560" y="910" />
              <mxPoint x="-590" y="910" />
              <mxPoint x="-590" y="815" />
            </Array>
          </mxGeometry>
        </mxCell>
      </root>
    </mxGraphModel>
  </diagram>
</mxfile>
